<?xml version="1.0" standalone="no"?>
<!DOCTYPE svg PUBLIC "-//W3C//DTD SVG 1.1//EN" "http://www.w3.org/Graphics/SVG/1.1/DTD/svg11.dtd">
<svg width="100%" height="100%" viewBox="0 0 200 200" version="1.1" xmlns="http://www.w3.org/2000/svg" xmlns:xlink="http://www.w3.org/1999/xlink" xml:space="preserve" style="fill-rule:evenodd;clip-rule:evenodd;stroke-linejoin:round;stroke-miterlimit:1.41421;">
    <g id="Layer3" transform="matrix(0.884429,0,0,0.884429,14.0401,-4.80416)">
        <path d="M152.551,55.838L152.551,55.841L152.562,55.834L190.704,116.796L190.677,116.812L190.707,116.812L190.707,183.813L108,183.813L9,184L9,117L9.03,117L9.003,116.983L47.145,56.021L47.156,56.028L47.156,56.026L89.275,56.026L89.275,65.026L52.212,65.026L19.616,117L67.046,117C67.015,117.363 67,133.901 67,133.901C67,141.13 72.869,146.999 80.099,147L119.608,146.813C126.838,146.812 132.707,140.942 132.707,133.713C132.707,133.713 132.692,117.176 132.661,116.812L180.091,116.812L147.495,64.838L110.432,64.838L110.432,55.838L152.551,55.838Z" style="fill:#ff6600;"/>
        <path d="M96,101.241L96,26.915L104,26.915L104,101.437L128.556,77.196L134.176,82.89L100.273,116.357L100.242,116.326L100.07,116.5L66.167,83.033L71.787,77.339L96,101.241Z" style="fill:#ff6600;"/>
    </g>
</svg>
