<?xml version="1.0" standalone="no"?>
<!DOCTYPE svg PUBLIC "-//W3C//DTD SVG 1.1//EN" "http://www.w3.org/Graphics/SVG/1.1/DTD/svg11.dtd">
<svg width="100%" height="100%" viewBox="0 0 200 200" version="1.1" xmlns="http://www.w3.org/2000/svg" xmlns:xlink="http://www.w3.org/1999/xlink" xml:space="preserve" style="fill-rule:evenodd;clip-rule:evenodd;stroke-linejoin:round;stroke-miterlimit:1.41421;">
    <g transform="matrix(3.08993,0,0,3.08993,42.9368,-74.6675)">
        <g id="Layer5">
            <path d="M22.064,67.066L14.095,67.066C14.074,65.92 14.064,65.222 14.064,64.972C14.064,62.389 14.491,60.264 15.345,58.597C16.199,56.93 17.907,55.055 20.47,52.972C23.032,50.889 24.564,49.524 25.064,48.878C25.834,47.857 26.22,46.732 26.22,45.503C26.22,43.795 25.537,42.331 24.173,41.113C22.808,39.894 20.97,39.284 18.657,39.284C16.428,39.284 14.564,39.92 13.064,41.191C11.564,42.461 10.532,44.399 9.97,47.003L1.907,46.003C2.136,42.274 3.725,39.107 6.673,36.503C9.621,33.899 13.491,32.597 18.282,32.597C23.324,32.597 27.334,33.915 30.314,36.55C33.293,39.185 34.782,42.253 34.782,45.753C34.782,47.691 34.235,49.524 33.142,51.253C32.048,52.982 29.709,55.336 26.126,58.316C24.272,59.857 23.121,61.097 22.673,62.034C22.225,62.972 22.022,64.649 22.064,67.066ZM14.095,78.878L14.095,70.097L22.876,70.097L22.876,78.878L14.095,78.878Z" style="fill:white;fill-rule:nonzero;"/>
        </g>
    </g>
</svg>
