<?xml version="1.0" standalone="no"?>
<!DOCTYPE svg PUBLIC "-//W3C//DTD SVG 1.1//EN" "http://www.w3.org/Graphics/SVG/1.1/DTD/svg11.dtd">
<svg width="100%" height="100%" viewBox="0 0 250 200" version="1.1" xmlns="http://www.w3.org/2000/svg" xmlns:xlink="http://www.w3.org/1999/xlink" xml:space="preserve" style="fill-rule:evenodd;clip-rule:evenodd;stroke-linejoin:round;stroke-miterlimit:1.41421;">
    <g id="Layer5" transform="matrix(1,0,0,1,25,0)">
        <g transform="matrix(1,0,0,1,-25,0)">
            <path d="M122.5,152.5L17.5,152.5L17.5,36.5L122.5,36.5L122.5,152.5ZM30.5,49.5L30.5,139.5L109.5,139.5L109.5,49.5L30.5,49.5Z" style="fill:#ff6600;"/>
        </g>
        <g transform="matrix(1,0,0,0.543689,86.9453,6.54226)">
            <path d="M122.5,157.955L17.5,157.955L17.5,31.045L122.5,31.045L122.5,157.955ZM30.5,54.955L30.5,134.045L109.5,134.045L109.5,54.955L30.5,54.955Z" style="fill:#ff6600;"/>
        </g>
        <g transform="matrix(1,0,0,0.543689,86.9453,82.429)">
            <path d="M122.5,31.045L122.5,157.955L17.5,157.955L17.5,31.045L122.5,31.045ZM30.5,134.045L109.5,134.045L109.5,54.955L30.5,54.955L30.5,134.045Z" style="fill:#ff6600;"/>
        </g>
    </g>
</svg>
