<?xml version="1.0" standalone="no"?>
<!DOCTYPE svg PUBLIC "-//W3C//DTD SVG 1.1//EN" "http://www.w3.org/Graphics/SVG/1.1/DTD/svg11.dtd">
<svg width="100%" height="100%" viewBox="0 0 300 200" version="1.1" xmlns="http://www.w3.org/2000/svg" xmlns:xlink="http://www.w3.org/1999/xlink" xml:space="preserve" style="fill-rule:evenodd;clip-rule:evenodd;stroke-linejoin:round;stroke-miterlimit:1.41421;">
    <g id="Layer2" transform="matrix(1,0,0,1,50,0)">
        <g transform="matrix(1.39894,0,0,1.39894,-38.5693,-37.6952)">
            <path d="M189.069,82.9C192.034,82.901 194.44,85.268 194.44,88.184L184.44,138.616C184.44,141.533 182.033,143.9 179.069,143.9L97.37,144C94.406,144 92,141.632 92,138.716L82,88.284C82,85.368 84.406,83 87.37,83L189.069,82.9Z" style="fill:#ff6600;"/>
        </g>
        <g transform="matrix(1.39894,0,0,1.39894,-38.5693,-37.6952)">
            <path d="M90,59C90,57.344 88.656,56 87,56L42,56C40.344,56 39,57.344 39,59C39,60.656 40.344,62 42,62L87,62C88.656,62 90,60.656 90,59Z" style="fill:#ff6600;"/>
        </g>
        <g transform="matrix(1.7281,0,0,1.39894,-86.9788,-13.1241)">
            <path d="M90,59C90,57.344 88.912,56 87.571,56L41.429,56C40.088,56 39,57.344 39,59C39,60.656 40.088,62 41.429,62L87.571,62C88.912,62 90,60.656 90,59Z" style="fill:#ff6600;"/>
        </g>
        <g transform="matrix(1.61838,0,0,1.39894,-71.7197,43.1902)">
            <path d="M90,59C90,57.344 88.838,56 87.407,56L41.593,56C40.162,56 39,57.344 39,59C39,60.656 40.162,62 41.593,62L87.407,62C88.838,62 90,60.656 90,59Z" style="fill:#ff6600;"/>
        </g>
        <g transform="matrix(1.20693,0,0,1.39894,-29.774,74.1276)">
            <path d="M90,59C90,57.344 88.442,56 86.523,56L42.477,56C40.558,56 39,57.344 39,59C39,60.656 40.558,62 42.477,62L86.523,62C88.442,62 90,60.656 90,59Z" style="fill:#ff6600;"/>
        </g>
        <g transform="matrix(1.94754,0,0,1.39894,-105.514,14.1404)">
            <path d="M90,59C90,57.344 89.034,56 87.845,56L41.155,56C39.966,56 39,57.344 39,59C39,60.656 39.966,62 41.155,62L87.845,62C89.034,62 90,60.656 90,59Z" style="fill:#ff6600;"/>
        </g>
        <g transform="matrix(1.39894,0,0,1.39894,-38.5693,-37.6952)">
            <path d="M149.568,40.852C151.743,40.853 153.509,42.619 153.509,44.794L153.509,44.817C155.737,44.813 158.726,44.82 162.509,44.852C172.017,44.934 176.769,51.958 177.509,57.852C178.25,63.746 180.509,78.852 180.509,78.852L175.509,78.852C175.506,78.826 173.361,62.454 172.509,57.852C171.657,53.247 167.852,49.759 163.509,49.852C160.195,49.923 155.531,49.886 153.509,49.864L153.509,49.911C153.509,52.086 151.743,53.852 149.568,53.852L143,53.852L143,54L125.942,54C123.766,54 122,52.234 122,50.058L122,50.012C119.978,50.034 115.315,50.071 112,50C107.657,49.907 103.852,53.395 103,58C102.149,62.597 100.008,78.939 100,79L95,79C95,79 97.259,63.894 98,58C98.741,52.106 103.493,45.082 113,45C116.783,44.967 119.772,44.961 122,44.965L122,44.942C122,42.766 123.766,41 125.942,41L132.509,41L132.509,40.852L149.568,40.852Z" style="fill:#ff6600;"/>
        </g>
    </g>
</svg>
