<?xml version="1.0" standalone="no"?>
<!DOCTYPE svg PUBLIC "-//W3C//DTD SVG 1.1//EN" "http://www.w3.org/Graphics/SVG/1.1/DTD/svg11.dtd">
<svg width="100%" height="100%" viewBox="0 0 200 200" version="1.1" xmlns="http://www.w3.org/2000/svg" xmlns:xlink="http://www.w3.org/1999/xlink" xml:space="preserve" style="fill-rule:evenodd;clip-rule:evenodd;stroke-linejoin:round;stroke-miterlimit:1.41421;">
    <g id="Layer1">
        <g transform="matrix(1,0,0,1,-0.639648,0)">
            <path d="M98.395,36.461L98.395,16.318L117.613,16.318L117.613,36.461L137.756,36.461L137.756,55.68L117.613,55.68L117.613,75.823L98.395,75.823L98.395,55.68L78.251,55.68L78.251,36.461L98.395,36.461Z" style="fill:white;"/>
        </g>
        <path d="M68.45,30.95C74.631,15.482 89.76,4.542 107.424,4.542C130.578,4.542 149.376,23.34 149.376,46.495C149.376,60.607 142.393,73.101 131.697,80.708C131.974,82.985 132.117,85.304 132.117,87.656C132.117,101.432 127.226,114.075 119.088,123.942L132.694,137.555L132.72,137.529C135.206,135.045 139.242,135.046 141.726,137.533L180.785,176.626C181.71,177.551 181.709,179.052 180.784,179.977L166.452,194.297C165.526,195.222 164.025,195.221 163.1,194.296L124.041,155.203C121.556,152.717 121.558,148.681 124.045,146.197L124.23,146.012L110.556,132.329C100.804,140.096 88.457,144.74 75.033,144.74C43.528,144.74 17.95,119.162 17.95,87.656C17.95,58.378 40.041,34.218 68.45,30.95ZM65.569,43.599C45.24,47.952 29.978,66.036 29.978,87.656C29.978,112.523 50.167,132.712 75.033,132.712C99.9,132.712 120.089,112.523 120.089,87.656C120.089,87.271 120.084,86.887 120.074,86.504C116.081,87.767 111.831,88.448 107.424,88.448C84.269,88.448 65.471,69.649 65.471,46.495C65.471,45.521 65.504,44.556 65.569,43.599ZM107.424,10.71C127.174,10.71 143.209,26.745 143.209,46.495C143.209,66.245 127.174,82.28 107.424,82.28C87.673,82.28 71.638,66.245 71.638,46.495C71.638,26.745 87.673,10.71 107.424,10.71Z" style="fill:white;"/>
    </g>
</svg>
