<?xml version="1.0" encoding="UTF-8" standalone="no"?>
<!DOCTYPE svg PUBLIC "-//W3C//DTD SVG 1.1//EN" "http://www.w3.org/Graphics/SVG/1.1/DTD/svg11.dtd">
<svg width="100%" height="100%" viewBox="0 0 2369 401" version="1.1" xmlns="http://www.w3.org/2000/svg" xmlns:xlink="http://www.w3.org/1999/xlink" xml:space="preserve" style="fill-rule:evenodd;clip-rule:evenodd;stroke-linejoin:round;stroke-miterlimit:1.41421;">
    <g id="Artboard1" transform="matrix(1,0,0,1,-102,-70)">
        <rect x="102" y="70" width="2369" height="401" style="fill:none;"/>
        <g transform="matrix(4.16667,0,0,4.16667,0,0)">
            <path d="M29.219,93.315L55.719,93.315L55.719,92.315C48.819,91.815 48.019,91.615 48.019,87.915L48.019,53.815C51.019,50.815 55.119,47.415 60.119,47.415C66.519,47.415 68.719,51.415 68.719,56.715L68.719,87.915C68.719,91.615 67.919,91.815 62.619,92.315L62.619,93.315L87.519,93.315L87.519,92.315C80.619,91.815 79.819,91.615 79.819,87.915L79.819,57.315C79.819,46.315 73.819,42.315 66.819,42.315C59.519,42.315 52.819,46.915 48.019,52.815L47.519,52.815L48.019,23.15L47.019,23.15L29.219,25.35L29.219,26.35C36.119,26.85 36.919,27.05 36.919,31.15L36.919,87.915C36.919,91.615 36.119,91.815 29.219,92.315L29.219,93.315Z" style="fill:rgb(114,114,119);fill-rule:nonzero;"/>
        </g>
        <g transform="matrix(4.16667,0,0,4.16667,0,0)">
            <path d="M126.968,82.815C123.968,85.615 119.268,88.815 113.468,88.815C108.668,88.815 106.268,85.715 106.268,80.815L106.268,42.315L104.868,42.315L87.468,44.515L87.468,45.515C94.368,46.015 95.168,46.215 95.168,50.315L95.168,79.315C95.168,90.315 101.168,94.315 108.168,94.315C115.468,94.315 122.168,89.715 126.968,83.815L127.468,83.815L127.668,94.315L128.668,94.315L145.768,92.115L145.768,91.115C138.868,90.615 138.068,90.415 138.068,86.315L138.068,42.315L136.668,42.315L117.268,44.515L117.268,45.515C126.168,46.015 126.968,46.215 126.968,50.315L126.968,82.815Z" style="fill:rgb(114,114,119);fill-rule:nonzero;"/>
        </g>
        <g transform="matrix(4.16667,0,0,4.16667,0,0)">
            <path d="M184.34,58.315L183.44,45.415C179.44,43.515 173.74,42.315 169.04,42.315C157.54,42.315 151.14,48.215 151.14,56.215C151.14,73.615 178.04,70.915 178.04,84.415C178.04,89.515 174.44,93.315 168.04,93.315C161.44,93.315 154.44,88.715 151.64,77.315L150.64,77.315L151.84,90.815C155.84,92.815 162.34,94.315 167.64,94.315C179.04,94.315 186.74,88.615 186.74,79.115C186.74,61.915 159.94,64.715 159.94,50.915C159.94,46.415 162.94,43.315 168.54,43.315C174.94,43.315 181.74,50.715 183.34,58.315L184.34,58.315Z" style="fill:rgb(114,114,119);fill-rule:nonzero;"/>
        </g>
        <g transform="matrix(4.16667,0,0,4.16667,0,0)">
            <path d="M287.671,82.815C284.671,85.615 279.971,88.815 274.171,88.815C269.371,88.815 266.971,85.715 266.971,80.815L266.971,42.315L265.571,42.315L248.171,44.515L248.171,45.515C255.071,46.015 255.871,46.215 255.871,50.315L255.871,79.315C255.871,90.315 261.871,94.315 268.871,94.315C276.171,94.315 282.871,89.715 287.671,83.815L288.171,83.815L288.371,94.315L289.371,94.315L306.471,92.115L306.471,91.115C299.571,90.615 298.771,90.415 298.771,86.315L298.771,42.315L297.371,42.315L277.971,44.515L277.971,45.515C286.871,46.015 287.671,46.215 287.671,50.315L287.671,82.815Z" style="fill:rgb(114,114,119);fill-rule:nonzero;"/>
        </g>
        <g transform="matrix(4.16667,0,0,4.16667,0,0)">
            <path d="M314.297,30.415C314.297,34.515 317.497,36.915 321.597,36.915C325.697,36.915 328.897,34.515 328.897,30.415C328.897,26.415 325.697,23.915 321.597,23.915C317.497,23.915 314.297,26.415 314.297,30.415" style="fill:rgb(114,114,119);fill-rule:nonzero;"/>
        </g>
        <g transform="matrix(4.16667,0,0,4.16667,0,0)">
            <path d="M326.08,42.315L325.08,42.315L307.28,44.515L307.28,45.515C314.18,46.015 314.979,46.215 314.979,50.315L314.979,87.915C314.979,91.615 314.18,91.815 307.28,92.315L307.28,93.315L333.78,93.315L333.78,92.315C326.88,91.815 326.08,91.615 326.08,87.915L326.08,42.315Z" style="fill:rgb(114,114,119);fill-rule:nonzero;"/>
        </g>
        <g transform="matrix(4.16667,0,0,4.16667,0,0)">
            <path d="M245.005,67.797C245.005,53.237 233.821,41.433 220.025,41.433C206.23,41.433 195.046,53.237 195.046,67.797C195.046,82.357 206.23,94.161 220.025,94.161C233.821,94.161 245.005,82.357 245.005,67.797M233.124,67.797C233.124,81.574 227.259,92.742 220.025,92.742C212.791,92.742 206.927,81.574 206.927,67.797C206.927,54.02 212.791,42.852 220.025,42.852C227.259,42.852 233.124,54.02 233.124,67.797" style="fill:rgb(114,114,119);fill-rule:nonzero;"/>
        </g>
        <g transform="matrix(4.16667,0,0,4.16667,0,0)">
            <path d="M208.755,83.278C210.899,80.786 212.986,77.366 219.477,77.366C226.316,77.366 233.213,82.756 243.587,92.145C253.557,101.168 259.352,106.577 267.929,106.113C276.969,105.624 280.68,104.258 287.171,100.086L287.229,101.071C283.23,104.374 274.304,110.17 264.626,110.17C254.309,110.17 245.384,102.288 238.893,96.724C232.401,91.16 223.323,82.742 216.164,82.11C211.345,81.685 209.503,84.094 209.503,84.094L208.755,83.278Z" style="fill:rgb(114,114,119);fill-rule:nonzero;"/>
        </g>
        <g transform="matrix(4.16667,0,0,4.16667,0,0)">
            <path d="M425.78,29.453C425.78,29.232 423.023,26.916 422.692,26.916C421.479,26.916 418.391,26.144 417.398,26.144C415.192,26.034 413.869,26.034 413.538,26.034L410.45,26.034C408.464,26.034 407.361,25.813 407.361,25.924C404.053,26.144 402.398,26.365 402.398,26.365L402.509,26.365C398.428,26.144 396.994,25.924 394.678,25.924C392.141,25.924 389.605,26.034 386.958,26.255L381.995,25.924C381.223,26.034 380.671,26.034 380.23,26.144C379.679,26.034 379.237,25.813 378.907,25.593C378.576,25.703 378.355,25.703 378.024,25.703L377.693,25.703C376.921,25.813 376.37,25.924 375.818,26.034L373.943,26.034C371.407,26.034 369.752,26.365 368.87,26.696C368.429,26.475 368.098,26.365 367.878,26.365C366.995,26.365 365.231,27.578 365.231,28.24C367.105,34.526 377.142,34.526 381.664,34.526L384.421,34.526C384.752,34.526 384.973,34.526 385.083,34.416C386.847,34.637 387.289,34.306 387.84,35.85C388.171,35.85 388.502,37.945 388.943,37.945C385.745,49.636 386.406,49.636 385.855,51.291C384.531,59.231 383.98,59.673 383.759,62.65L383.539,63.092C383.428,64.525 383.208,65.628 382.987,66.621C383.098,66.841 383.098,67.062 383.098,67.172C382.987,67.834 382.767,68.386 382.656,68.827L382.656,69.488C382.326,72.246 381.995,74.562 381.884,77.54C381.884,77.76 381.884,77.981 381.995,78.091C381.884,79.635 381.554,81.069 381.554,81.951L381.554,85.039C381.554,85.37 381.774,85.811 381.774,86.142C381.664,86.473 381.664,86.694 381.554,86.914C381.554,87.576 381.884,93.311 382.326,93.973L382.546,93.973C382.656,93.973 382.656,93.973 382.767,93.863L383.098,93.863C383.539,93.752 383.98,93.532 384.311,93.311L384.421,93.311C384.531,93.311 387.62,91.436 387.73,91.326C387.84,91.216 388.171,90.664 388.502,89.782L388.502,89.12C388.833,87.797 389.053,86.694 389.053,86.142L389.053,85.811L389.053,83.495C389.053,81.951 390.156,79.084 390.377,78.312C391.59,74.01 394.347,61.106 395.119,57.908C399.641,39.379 399.421,35.96 400.744,34.637L401.406,34.637C401.957,34.526 402.398,34.526 402.84,34.526L405.487,34.526L406.038,34.416C407.031,34.306 407.803,34.306 408.464,34.306L409.126,33.975C409.678,33.865 410.229,33.754 410.56,33.644C411.001,33.754 411.332,33.975 411.663,34.085L411.994,33.754C412.545,33.644 412.876,33.644 413.207,33.644C413.427,33.754 413.648,33.754 413.758,33.865L413.979,33.865C414.089,33.754 414.641,33.423 414.751,33.313L417.067,33.313C421.479,31.438 423.354,31.328 424.898,30.446C425.449,29.784 425.67,29.453 425.78,29.453M452.039,44.563C451.818,44.232 451.377,43.901 450.825,43.57C450.495,43.35 450.053,43.239 449.612,43.129C449.171,43.019 448.84,42.908 448.399,42.908C447.406,42.908 446.083,43.019 444.429,43.46C442.885,43.901 441.01,44.783 438.914,45.776C437.149,46.769 435.495,47.43 434.392,47.982C433.289,48.533 432.517,48.974 432.186,48.974C431.745,48.974 431.194,48.864 430.753,48.533C430.201,48.202 429.65,47.541 428.988,46.879C428.547,46.438 428.216,45.997 427.885,45.666C427.444,45.335 427.003,45.225 426.672,45.004C426.341,44.783 426.451,44.673 426.231,44.452C426.01,44.122 426.01,44.011 425.679,43.901C425.238,43.68 425.128,44.011 424.687,44.011C424.135,44.011 424.135,43.68 423.694,43.791C423.253,43.901 423.363,44.011 423.032,44.232C422.701,44.342 422.701,44.342 422.371,44.563C421.709,45.225 421.819,45.335 421.268,45.997C420.606,46.769 420.606,46.658 420.054,47.43C419.944,47.541 420.165,47.541 420.054,47.761C420.054,47.872 419.944,47.872 419.944,47.982C419.062,48.864 418.4,49.857 417.959,50.849C417.407,51.732 417.077,52.724 416.966,53.607C416.856,54.268 416.746,55.04 416.635,55.923C416.525,56.915 416.305,58.018 416.084,59.231C415.974,60.445 415.974,61.548 415.863,62.43C415.753,63.422 415.643,64.194 415.533,64.746C415.422,64.967 415.533,64.967 415.422,65.297C415.312,65.628 415.091,66.069 414.871,66.731L414.871,66.621C414.76,66.621 414.76,66.731 414.76,66.731L414.319,68.055C414.209,68.606 414.319,68.716 414.099,69.268C413.768,70.812 413.216,72.577 412.665,74.782C412.114,76.988 411.672,79.525 410.9,82.503C410.9,82.834 410.79,83.164 410.79,83.606C410.79,83.936 410.68,84.267 410.79,84.598C410.79,84.819 410.79,84.819 410.68,85.039C410.569,85.26 410.349,85.26 410.349,85.481C410.459,85.811 410.569,85.811 410.68,86.142L410.9,86.804C410.9,86.914 411.011,86.804 411.121,86.914C411.231,87.025 411.121,87.025 411.121,87.135C411.231,87.355 411.231,87.355 411.231,87.466C411.231,87.686 411.121,87.686 411.121,87.797C411.121,88.238 411.341,88.128 411.452,88.569C411.562,88.9 411.341,89.01 411.562,89.341C411.893,90.223 412.003,90.113 412.444,90.885C412.996,91.657 412.996,91.657 413.437,92.429C413.547,92.649 413.547,92.649 413.658,92.76C413.658,92.98 413.437,93.091 413.658,93.201C413.878,93.421 413.988,93.311 414.209,93.421C414.54,93.532 414.43,93.752 414.76,93.752C415.091,93.863 415.091,93.642 415.422,93.532C415.753,93.421 415.974,93.752 416.194,93.421C416.635,92.76 416.415,92.539 416.635,91.767C416.966,90.885 416.525,90.554 417.297,90.113C417.959,89.782 417.849,90.444 418.29,90.885C418.841,91.216 418.731,91.547 419.393,91.767C419.613,91.877 419.503,91.436 419.613,91.216C419.724,90.995 419.834,91.105 419.944,90.885C420.275,89.672 420.275,89.672 420.496,88.569C420.826,87.355 420.937,87.355 421.157,86.142C421.157,85.701 420.937,85.701 420.937,85.26C420.937,84.709 421.047,84.709 421.047,84.267C421.157,83.936 421.047,83.936 421.047,83.716C421.157,83.385 421.157,83.385 421.268,83.164C421.598,82.282 421.929,81.4 422.15,80.407C422.481,79.415 422.812,78.312 423.032,77.098C423.473,74.893 423.804,73.238 424.135,72.135C424.466,70.922 424.907,70.371 425.017,70.04C425.348,68.716 425.679,67.393 426.341,66.18C426.892,64.967 427.444,63.864 428.216,62.981C431.745,58.239 434.944,55.261 437.37,53.496C439.907,51.621 441.671,51.18 442.223,50.96C443.436,50.408 443.326,50.188 444.539,49.416C445.642,48.754 445.642,48.754 446.855,48.092C448.289,47.541 449.612,47.21 450.495,46.879C451.487,46.658 452.039,46.438 452.149,45.997C452.149,45.445 452.259,45.004 452.039,44.563M486.526,53.827C486.526,50.96 481.563,48.974 481.674,49.085C476.049,47.541 477.152,46.107 474.505,46.107C472.63,44.232 471.196,43.35 469.983,43.35C466.123,43.35 461.38,48.754 455.314,56.915C451.013,60.665 451.675,62.43 449.138,64.305C442.962,74.01 442.741,73.79 442.3,76.547C441.087,77.76 440.094,78.532 439.212,78.863C438.44,81.62 438.109,83.495 438.109,84.709C438.109,88.9 440.977,90.002 442.19,94.193C443.072,97.061 446.27,98.495 446.491,98.495C448.145,98.495 449.579,97.613 451.013,95.958C458.513,92.098 460.498,90.885 461.27,88.569C468.439,82.503 469.762,80.297 470.976,80.297C471.306,80.297 471.637,80.517 471.968,80.959C471.527,82.172 471.196,84.267 471.196,87.466C471.196,91.105 471.527,92.539 473.843,94.855C475.056,96.068 475.828,96.951 476.159,97.502C475.939,96.51 475.939,95.627 475.939,94.855C475.939,94.193 475.939,93.642 476.049,93.091L477.483,83.936C478.144,79.745 478.806,76.768 479.578,75.003C481.894,69.378 483.438,61.548 485.203,59.783C485.424,58.129 485.534,57.026 485.644,56.254C485.644,55.702 486.526,54.158 486.526,53.827M474.064,55.592C473.953,55.923 473.843,56.254 473.733,56.364C473.402,56.254 473.181,56.033 473.071,55.923C473.181,55.923 473.953,55.592 474.064,55.592M472.299,57.687C472.189,57.687 471.417,59.342 470.093,62.65C468.218,64.084 464.468,69.93 464.468,71.032C458.623,76.878 457.41,77.65 456.638,78.973C451.895,82.723 448.697,86.914 447.042,86.914C446.491,86.914 446.27,86.694 446.27,86.032C446.27,84.157 452.557,75.113 453.439,73.79C462.152,63.643 465.24,60.114 467.777,58.57C469.431,57.136 470.645,56.364 471.196,56.364C471.968,56.364 472.299,56.805 472.299,57.687M549.038,31.107L548.928,31.107C547.714,31.107 544.847,29.343 543.965,27.799C543.854,27.909 543.634,28.019 543.303,28.019C542.862,28.019 541.097,27.137 540.656,27.137C538.45,27.137 537.568,32.651 537.016,34.637C531.392,49.085 532.715,45.004 530.289,50.849C526.098,49.857 525.215,49.526 524.223,48.533C522.127,47.982 520.693,47.761 519.921,47.761C519.811,47.761 513.855,49.085 513.855,49.526C513.855,49.636 514.076,49.636 514.296,49.636C512.422,51.621 510.877,52.945 509.664,53.607C504.26,58.68 505.032,60.003 502.054,61.217C499.738,66.069 499.187,65.187 498.304,65.739C495.547,69.268 492.018,74.121 491.577,77.76C489.922,79.194 489.04,81.4 489.04,84.598C489.04,87.025 491.025,89.341 491.797,90.333C493.341,93.973 498.525,93.642 499.518,93.642L500.069,93.642C502.385,90.774 502.165,91.767 502.937,91.436C510.436,87.355 515.73,81.841 520.473,77.54C520.914,77.098 521.245,76.988 521.576,76.988C521.796,76.988 522.017,76.988 522.127,77.098C526.649,86.473 526.649,88.9 530.289,88.9C532.825,88.9 532.274,89.782 539.774,86.914C539.994,86.583 540.104,86.253 540.104,86.032C540.435,86.253 540.656,86.363 540.876,86.473C540.546,85.039 540.435,84.047 540.435,83.495C539.774,84.047 539.112,84.267 538.56,84.267C538.119,83.936 537.568,83.826 536.796,83.826C536.244,83.826 534.921,84.047 534.369,84.047C530.73,84.047 528.855,82.172 528.855,78.422C528.855,77.981 530.509,74.231 531.061,70.26C534.921,63.202 535.252,65.077 542.31,49.967C548.707,36.622 548.487,35.74 549.038,31.107M527.09,56.474C527.09,56.584 525.987,59.342 525.877,59.893C524.995,65.959 523.892,67.172 522.237,68.165C518.598,72.135 518.157,73.679 516.061,74.562C515.51,75.113 515.179,75.554 514.958,75.996L513.304,77.098C512.752,77.76 512.311,78.312 511.98,78.753C499.297,88.569 504.481,85.039 496.099,88.458L495.437,88.458C495.437,88.348 494.885,87.797 494.885,87.355C494.885,86.253 499.187,78.091 508.561,68.716C509.995,67.834 510.216,66.731 511.87,65.187C517.495,60.224 521.134,57.356 522.789,56.695L524.112,55.812C524.774,55.371 525.326,55.151 525.877,55.151C525.987,55.151 526.428,55.371 527.09,55.702L527.09,56.474ZM589.668,54.048C589.668,49.967 582.83,44.563 577.977,43.35C577.867,43.35 575.22,42.908 570.257,42.136C569.705,42.026 568.271,40.482 567.83,40.482L566.948,40.482C566.727,41.585 566.066,42.467 564.852,43.019L561.433,44.894C558.897,47.43 557.132,49.416 556.029,50.849L554.044,52.504C550.515,55.371 551.948,56.584 549.963,57.798C548.971,61.989 547.647,60.996 547.647,62.209C547.096,64.525 546.654,66.18 546.213,67.062C546.213,69.93 547.206,77.54 550.846,82.172C554.044,86.142 560.441,92.87 565.294,92.87C578.308,92.87 587.241,80.959 587.793,80.407C588.344,78.973 588.675,77.65 588.785,76.657C588.565,76.547 588.344,76.437 588.013,76.437C587.352,76.437 583.271,79.966 578.308,82.282C573.786,84.378 570.257,85.37 567.94,85.37C564.742,85.37 563.529,84.047 562.977,83.716C559.007,83.275 558.897,83.275 556.911,80.517C555.919,79.084 555.367,78.091 555.367,77.429C555.367,75.003 556.801,71.474 559.558,66.952C561.213,68.275 564.742,68.937 570.367,68.937C572.021,68.937 589.668,67.503 589.668,54.048M575.551,52.393C574.779,54.93 574.779,57.798 567.499,62.43C564.521,64.305 562.757,65.187 561.985,65.187C561.875,65.187 561.102,64.967 559.669,64.525C563.088,60.003 564.742,56.254 570.367,53.055L573.565,51.07C574.006,51.07 574.668,51.511 575.551,52.393" style="fill:rgb(186,20,18);fill-rule:nonzero;"/>
        </g>
    </g>
</svg>
